<svg version="1.1" xmlns="http://www.w3.org/2000/svg" xmlns:xlink="http://www.w3.org/1999/xlink" viewBox="0 0 172 172"><g fill="none" fill-rule="nonzero" stroke="none" stroke-width="1" stroke-linecap="butt" stroke-linejoin="miter" stroke-miterlimit="10" stroke-dasharray="" stroke-dashoffset="0" font-family="none" font-weight="none" font-size="none" text-anchor="none" style="mix-blend-mode: normal"><path d="M0,172v-172h172v172z" fill="none"></path><g><path d="M86,166.625c-44.4577,0 -80.625,-36.1673 -80.625,-80.625c0,-44.4577 36.1673,-80.625 80.625,-80.625c44.4577,0 80.625,36.1673 80.625,80.625c0,44.4577 -36.1673,80.625 -80.625,80.625z" fill="#f1c40f"></path><path d="M86,6.45c43.8643,0 79.55,35.6857 79.55,79.55c0,43.8643 -35.6857,79.55 -79.55,79.55c-43.8643,0 -79.55,-35.6857 -79.55,-79.55c0,-43.8643 35.6857,-79.55 79.55,-79.55M86,4.3c-45.12205,0 -81.7,36.57795 -81.7,81.7c0,45.12205 36.57795,81.7 81.7,81.7c45.12205,0 81.7,-36.57795 81.7,-81.7c0,-45.12205 -36.57795,-81.7 -81.7,-81.7z" fill="#f1c40f"></path><path d="M43,81.7h86v8.6h-86z" fill="#ffffff"></path><path d="M90.3,43v86h-8.6v-86z" fill="#ffffff"></path></g></g></svg>