<?xml version="1.0" encoding="utf-8"?>
<!-- Generator: Adobe Illustrator 18.0.0, SVG Export Plug-In . SVG Version: 6.00 Build 0)  -->
<!DOCTYPE svg PUBLIC "-//W3C//DTD SVG 1.1//EN" "http://www.w3.org/Graphics/SVG/1.1/DTD/svg11.dtd">
<svg version="1.1" id="Layer_1" xmlns="http://www.w3.org/2000/svg" xmlns:xlink="http://www.w3.org/1999/xlink" x="0px" y="0px"
	 viewBox="0 0 39 26.9" enable-background="new 0 0 39 26.9" xml:space="preserve">
<g>
	<path fill="#616E7D" d="M29.8,25.9l4.3-13.2l-2.9-1V1.3H3.9v13.8h0.8l-0.8,2.4L29.8,25.9z M31.7,16.3l0.2,0.1l-1.8,5.4L30,21.7
		c-0.3-0.1-0.6-0.1-0.9-0.1c-1.3,0-2.4,0.8-2.8,2.1l-0.1,0.2l-18-5.9l0.1-0.2c0.1-0.3,0.1-0.6,0.1-0.9c0-0.6-0.2-1.2-0.5-1.7h0.4
		h5.1h1h3.4c0.2,0.1,0.3,0.2,0.5,0.3l-0.4,1.3c-0.3-0.2-0.5-0.5-0.7-0.9c0-0.1-0.1-0.2-0.2-0.2c-0.1,0-0.2,0-0.2,0h0l-0.7,0.1
		c-0.1,0-0.2,0.1-0.2,0.2c0,0.1,0,0.1,0,0.2c0.1,0.2,0.2,0.5,0.4,0.8c0.3,0.4,0.7,0.8,1.1,1l-0.2,0.5c-0.1,0.2,0,0.3,0.2,0.4
		l0.5,0.2c0.2,0.1,0.3,0,0.4-0.2l0.2-0.5c0.5,0.1,0.9,0.1,1.3,0c0.6-0.2,1-0.6,1.2-1.1c0.1-0.4,0.1-0.7,0-1
		c-0.1-0.4-0.4-0.7-0.8-0.9h3.3h1h5.1h0.4C30.5,15.7,31.1,16.1,31.7,16.3z M19,17.1l0.4-1.1c0.3,0.2,0.4,0.4,0.3,0.7
		c-0.1,0.2-0.2,0.4-0.5,0.4C19.1,17.1,19.1,17.1,19,17.1z M4.9,5.4h0.2c0.8,0,1.6-0.3,2.1-0.9C7.7,4,8,3.2,8,2.4V2.2h18.8H27v0.2
		c0,0.8,0.3,1.6,0.9,2.1C28.4,5,29.1,5.4,30,5.4h0.2v5.7H30c-0.8,0-1.6,0.3-2.1,0.9C27.3,12.5,27,13.2,27,14v0.2H8V14
		c0-0.8-0.3-1.6-0.9-2.1c-0.5-0.5-1.3-0.9-2.1-0.9H4.9V5.4z"/>
	<path fill="#82BFAB" d="M25.9,23.3c0.5-1.3,1.8-2.1,3.1-2.1c0.3,0,0.6,0,0.9,0.1l1.5-4.7c-0.7-0.3-1.3-0.8-1.7-1.4h-5.1
		c0,0.6-0.1,1.2-0.3,1.7c-0.8,2.4-3,3.9-5.4,3.9c-0.6,0-1.2-0.1-1.7-0.3c-2.4-0.8-3.9-3-3.9-5.4H8.2c0.3,0.5,0.5,1.1,0.5,1.7
		c0,0.3,0,0.6-0.1,0.9L25.9,23.3z"/>
	<path fill="#FFFFFF" d="M8.1,17.9l18,5.9l0.1-0.2c0.4-1.3,1.6-2.1,2.8-2.1c0.3,0,0.6,0,0.9,0.1l0.2,0.1l1.8-5.4l-0.2-0.1
		c-0.6-0.2-1.2-0.6-1.5-1.2h-0.4c0.4,0.6,0.9,1.2,1.7,1.4l-1.5,4.7c-0.3-0.1-0.6-0.1-0.9-0.1c-1.4,0-2.6,0.8-3.1,2.1L8.6,17.7
		c0.1-0.3,0.1-0.6,0.1-0.9c0-0.6-0.2-1.2-0.5-1.7H7.8c0.3,0.5,0.5,1.1,0.5,1.7c0,0.3,0,0.6-0.1,0.9L8.1,17.9z"/>
	<path fill="#AAD3C7" d="M19,17.1c0,0,0.1,0,0.1,0c0.3-0.1,0.4-0.2,0.5-0.4c0.1-0.3,0-0.5-0.3-0.7L19,17.1z"/>
	<path fill="#AAD3C7" d="M16.1,15.8l0.7-0.1h0c0,0,0.1,0,0.2,0c0.1,0,0.2,0.1,0.2,0.2c0.2,0.4,0.4,0.7,0.7,0.9l0.4-1.3
		c-0.2-0.1-0.4-0.2-0.5-0.3h-3.4c0,2,1.3,3.8,3.2,4.4c0.5,0.2,1,0.2,1.4,0.2c2,0,3.8-1.3,4.4-3.2c0.2-0.5,0.2-1,0.2-1.4h-3.3
		c0.4,0.3,0.6,0.6,0.8,0.9c0.1,0.3,0.1,0.7,0,1c-0.2,0.6-0.6,1-1.2,1.1c-0.4,0.1-0.8,0.1-1.3,0l-0.2,0.5c-0.1,0.2-0.2,0.3-0.4,0.2
		l-0.5-0.2c-0.2-0.1-0.3-0.2-0.2-0.4l0.2-0.5c-0.5-0.2-0.9-0.6-1.1-1c-0.2-0.3-0.3-0.5-0.4-0.8c0-0.1,0-0.1,0-0.2
		C16,15.9,16,15.8,16.1,15.8z"/>
	<path fill="#FFFFFF" d="M19,19.8c-0.5,0-1-0.1-1.4-0.2c-2-0.6-3.2-2.5-3.2-4.4h-1c0,2.4,1.5,4.6,3.9,5.4c0.6,0.2,1.2,0.3,1.7,0.3
		c2.4,0,4.6-1.5,5.4-3.9c0.2-0.6,0.3-1.2,0.3-1.7h-1c0,0.5-0.1,1-0.2,1.4C22.8,18.5,21,19.8,19,19.8z"/>
	<path fill="#82BFAB" d="M17.4,2.6h-9C8.3,4.3,6.9,5.6,5.3,5.7v5c1.7,0.1,3.1,1.5,3.2,3.2h9c-3.1-0.1-5.5-2.6-5.5-5.6
		C11.9,5.1,14.3,2.6,17.4,2.6z"/>
	<path fill="#82BFAB" d="M17.6,13.9h9c0.1-1.7,1.5-3.1,3.2-3.2v-5c-1.7-0.1-3.1-1.5-3.2-3.2h-9c3.1,0.1,5.5,2.6,5.5,5.6
		C23.2,11.3,20.7,13.8,17.6,13.9z"/>
	<path fill="#FFFFFF" d="M27,14.2V14c0-0.8,0.3-1.6,0.9-2.1c0.5-0.5,1.3-0.9,2.1-0.9h0.2V5.4H30c-0.8,0-1.6-0.3-2.1-0.9
		C27.3,4,27,3.2,27,2.4V2.2h-0.2H8v0.2C8,3.2,7.7,4,7.2,4.5C6.6,5,5.9,5.4,5.1,5.4H4.9v5.7h0.2c0.8,0,1.6,0.3,2.1,0.9
		C7.7,12.5,8,13.2,8,14v0.2H27z M26.6,2.6c0.1,1.7,1.5,3.1,3.2,3.2v5c-1.7,0.1-3.1,1.5-3.2,3.2h-9c3.1-0.1,5.5-2.6,5.5-5.6
		c0-3.1-2.5-5.6-5.5-5.6H26.6z M22.2,8.2c0,2.6-2.1,4.7-4.7,4.7c-2.6,0-4.7-2.1-4.7-4.7c0-2.6,2.1-4.7,4.7-4.7
		C20.1,3.6,22.2,5.6,22.2,8.2z M5.3,10.7v-5c1.7-0.1,3.1-1.5,3.2-3.2h9c-3.1,0.1-5.5,2.6-5.5,5.6c0,3.1,2.5,5.6,5.5,5.6h-9
		C8.3,12.2,6.9,10.8,5.3,10.7z"/>
	<path fill="#AAD3C7" d="M16.6,7c0,0.2,0.1,0.4,0.4,0.5v-1l0,0C16.7,6.6,16.6,6.8,16.6,7z"/>
	<path fill="#AAD3C7" d="M18.1,10.1c0,0,0.1,0,0.1-0.1c0.2-0.1,0.3-0.3,0.3-0.6c0-0.3-0.2-0.4-0.5-0.5V10.1z"/>
	<path fill="#AAD3C7" d="M17.5,3.6c-2.6,0-4.7,2.1-4.7,4.7c0,2.6,2.1,4.7,4.7,4.7c2.6,0,4.7-2.1,4.7-4.7C22.2,5.6,20.1,3.6,17.5,3.6
		z M19.4,10.9c-0.3,0.2-0.7,0.4-1.2,0.4v0.5c0,0.2-0.1,0.3-0.3,0.3h-0.6c-0.2,0-0.3-0.1-0.3-0.3v-0.5c-0.5-0.1-1-0.3-1.4-0.6
		c-0.3-0.2-0.5-0.4-0.6-0.6c0-0.1-0.1-0.1-0.1-0.2c0-0.1,0-0.2,0.1-0.2l0.6-0.3l0,0c0,0,0.1-0.1,0.2-0.1c0.1,0,0.2,0,0.3,0.1
		c0.3,0.3,0.6,0.5,0.9,0.6V8.7c-0.8-0.1-1.3-0.4-1.6-0.9C15.1,7.6,15,7.3,15,7c0-0.7,0.4-1.2,1.1-1.6c0.2-0.1,0.5-0.2,0.8-0.2V4.6
		c0-0.2,0.1-0.3,0.3-0.3h0.6c0.2,0,0.3,0.1,0.3,0.3v0.6c0.6,0.1,1.2,0.4,1.6,0.9c0.1,0.1,0.1,0.1,0.1,0.2c0,0.1,0,0.2-0.1,0.2
		L19,6.8l0,0c0,0-0.1,0.1-0.2,0.1c-0.1,0-0.2,0-0.3-0.1c-0.1-0.1-0.3-0.2-0.4-0.3v1.1c0.8,0.1,1.3,0.4,1.7,0.8
		c0.2,0.3,0.3,0.6,0.3,1C20.2,10,19.9,10.5,19.4,10.9z"/>
	<path fill="#616E7D" d="M17.3,12.2h0.6c0.2,0,0.3-0.1,0.3-0.3v-0.5c0.5-0.1,0.9-0.2,1.2-0.4c0.5-0.4,0.8-0.8,0.8-1.5
		c0-0.4-0.1-0.7-0.3-1c-0.4-0.4-0.9-0.7-1.7-0.8V6.5c0.1,0.1,0.3,0.1,0.4,0.3c0.1,0.1,0.2,0.1,0.3,0.1c0.1,0,0.2-0.1,0.2-0.1l0,0
		l0.6-0.4c0.1-0.1,0.1-0.1,0.1-0.2c0-0.1,0-0.1-0.1-0.2c-0.4-0.5-0.9-0.7-1.6-0.9V4.6c0-0.2-0.1-0.3-0.3-0.3h-0.6
		c-0.2,0-0.3,0.1-0.3,0.3v0.6c-0.3,0-0.6,0.1-0.8,0.2C15.4,5.7,15,6.3,15,7c0,0.3,0.1,0.6,0.3,0.9c0.3,0.5,0.9,0.7,1.6,0.9v1.4
		C16.6,10,16.3,9.8,16,9.4c-0.1-0.1-0.1-0.1-0.3-0.1c-0.1,0-0.2,0.1-0.2,0.1l0,0L15,9.7c-0.1,0.1-0.1,0.1-0.1,0.2
		c0,0.1,0,0.1,0.1,0.2c0.2,0.2,0.4,0.4,0.6,0.6c0.4,0.3,0.9,0.5,1.4,0.6v0.5C16.9,12,17.1,12.2,17.3,12.2z M18.1,8.9
		c0.3,0.1,0.5,0.3,0.5,0.5c0,0.2-0.1,0.4-0.3,0.6c0,0-0.1,0-0.1,0.1V8.9z M16.6,7c0-0.2,0.1-0.3,0.3-0.5l0,0v1
		C16.7,7.4,16.6,7.2,16.6,7z"/>
</g>
</svg>
